<?xml version="1.0" encoding="UTF-8"?>
<svg id="Layer_1" xmlns="http://www.w3.org/2000/svg" viewBox="0 0 1000 665.1">
  <path d="M792.6,183.69c-19.84-16.36-42.89-27.75-68.53-33.91-13.93-3.33-28.4-5.02-42.99-5.02-11.3,0-22.84,1.02-34.3,3.02l-23.09,4.04V0l-123.72,21.65c-25.6,4.48-50.44,13.74-73.83,27.5-22.99,13.55-43.52,30.85-61.03,51.43L113.45,396.36,0,529.66l388.7-68.01v203.45l203.34-239.03,407.96-71.4-207.4-170.98ZM552.18,356.4l-87.99,103.44v-88.04l-271.09,47.43,229.51-269.73c12.05-14.15,26.13-26.04,41.85-35.3,15.55-9.16,31.87-15.27,48.53-18.19l35.23-6.16v151.82l111.58-19.53c7.18-1.26,14.34-1.89,21.29-1.89,8.68,0,17.24.99,25.41,2.94,14.37,3.45,27.18,9.75,38.08,18.75l80.85,66.64-273.24,47.82Z"/>
</svg>